<?xml version="1.0" encoding="UTF-8"?>
<svg xmlns="http://www.w3.org/2000/svg" id="a" width="865.76" height="682.89" viewBox="0 0 865.76 682.89">
  <rect x="582.06" y="29.16" width="146.51" height="163.45" fill="#ffbb00" stroke="#002346" stroke-miterlimit="10"></rect>
  <rect x="591.7" y="38.82" width="127.2" height="144.23" fill="#fff" stroke="#002346" stroke-miterlimit="10"></rect>
  <path d="M620.11,502.63h54.44l28.84-143.74c1.37-6.8-2.12-13.66-8.43-16.55l-39.11-17.96-35.74,178.25Z" fill="#e6e7e8" stroke="#002346" stroke-miterlimit="10"></path>
  <path d="M464.27,502.63h155.84l35.74-178.25h-144.34c-6.68,0-12.43,4.71-13.74,11.26l-33.5,166.99Z" fill="#fff" stroke="#002346" stroke-miterlimit="10"></path>
  <path d="M648.05,419.29h71.37c6.67,0,12.08,5.41,12.08,12.08v159.13h-83.45v-171.21Z" fill="#e6e7e8" stroke="#002346" stroke-miterlimit="10"></path>
  <polygon points="424.22 590.5 447.02 590.5 480.98 419.29 424.22 419.29 424.22 590.5" fill="#e6e7e8" stroke="#002346" stroke-miterlimit="10"></polygon>
  <rect x="602.2" y="419.29" width="45.85" height="171.21" fill="#fff" stroke="#002346" stroke-miterlimit="10"></rect>
  <path d="M389.14,419.29h35.07v171.21h-45.85v-160.43c0-5.95,4.83-10.78,10.78-10.78Z" fill="#fff" stroke="#002346" stroke-miterlimit="10"></path>
  <rect x="424.22" y="502.65" width="177.99" height="87.86" fill="#e6e7e8" stroke="#002346" stroke-miterlimit="10"></rect>
  <rect x="424.22" y="464.66" width="177.99" height="38.34" fill="#e6e7e8" stroke="#002346" stroke-miterlimit="10"></rect>
  <polygon points="699.8 590.5 700.93 604.36 703.56 636.42 715.64 636.42 718.27 604.36 719.4 590.5 699.8 590.5" fill="#e6e7e8" stroke="#002346" stroke-miterlimit="10"></polygon>
  <polygon points="615.34 590.5 616.45 604.36 619.1 636.42 631.18 636.42 633.81 604.36 634.94 590.5 615.34 590.5" fill="#e6e7e8" stroke="#002346" stroke-miterlimit="10"></polygon>
  <polygon points="475.23 590.5 476.37 604.36 479 636.42 491.08 636.42 493.72 604.36 494.84 590.5 475.23 590.5" fill="#e6e7e8" stroke="#002346" stroke-miterlimit="10"></polygon>
  <polygon points="390.76 590.5 391.89 604.36 394.52 636.42 406.6 636.42 409.23 604.36 410.36 590.5 390.76 590.5" fill="#e6e7e8" stroke="#002346" stroke-miterlimit="10"></polygon>
  <rect x="331.4" y="138.47" width="228.75" height="164.57" fill="#fff" stroke="#002346" stroke-miterlimit="10"></rect>
  <rect x="406.78" y="199.7" width="133.93" height="16.62" fill="#0074ad" opacity=".3"></rect>
  <rect x="350.82" y="222.72" width="105.64" height="16.62" fill="#0074ad" opacity=".3"></rect>
  <rect x="331.4" y="102.46" width="228.75" height="36.02" fill="#0074ad" stroke="#002346" stroke-miterlimit="10"></rect>
  <rect x="406.78" y="199.7" width="21.39" height="16.62" fill="#0074ad" stroke="#002346" stroke-miterlimit="10"></rect>
  <rect x="435.09" y="222.72" width="21.39" height="16.62" fill="#0074ad" stroke="#002346" stroke-miterlimit="10"></rect>
  <path d="M358.7,163.69c.25-.3,.69-.34,1-.1,.74,.63,1.66,1,2.63,1.06,.62,.01,1.22-.17,1.73-.51,.35-.21,.57-.59,.59-1,0-.15-.04-.31-.12-.44-.11-.17-.25-.31-.42-.42-.58-.33-1.22-.55-1.88-.65h0c-.61-.1-1.21-.28-1.78-.53-.52-.24-.96-.6-1.29-1.07-.2-.35-.31-.75-.31-1.16,.03-.8,.44-1.54,1.1-2,.7-.5,1.53-.76,2.39-.74,1.09,.07,2.14,.47,3,1.15,.33,.21,.42,.64,.21,.97,0,.01-.01,.02-.02,.03h0c-.19,.32-.61,.43-.93,.23,0,0,0,0,0,0h0c-.64-.51-1.42-.81-2.23-.88-.55,0-1.1,.16-1.55,.48-.3,.18-.5,.51-.52,.86,0,.14,.03,.27,.1,.39,.1,.14,.23,.26,.37,.36,.53,.31,1.11,.52,1.72,.61h0c.66,.11,1.29,.3,1.9,.58,.56,.25,1.04,.65,1.39,1.15,.22,.35,.35,.75,.36,1.16-.02,.86-.45,1.65-1.16,2.14-.75,.53-1.64,.8-2.55,.79-1.29-.07-2.53-.55-3.53-1.38-.35-.22-.45-.67-.23-1.02,.01-.02,.03-.04,.04-.06Z" fill="#002346"></path>
  <path d="M393.72,157.22v8.1c-.01,.42-.35,.75-.77,.75-.42,0-.75-.33-.76-.75v-5.79l-1.94,2.78c-.14,.2-.37,.32-.62,.31h0c-.25,0-.49-.11-.64-.31l-2-2.77v5.79c0,.42-.35,.76-.77,.76-.42,0-.76-.34-.76-.76h0v-8.11c0-.41,.33-.75,.74-.76,0,0,0,0,.01,0h0c.24,0,.47,.12,.61,.32l2.74,3.81,2.75-3.81c.14-.2,.37-.32,.62-.32h0c.43,0,.78,.33,.79,.76Z" fill="#002346"></path>
  <path d="M421.13,157.96h-2.2v7.37c.01,.4-.31,.74-.71,.75,0,0,0,0-.01,0h0c-.41,0-.75-.33-.76-.74h0v-7.37h-2.18c-.42,0-.76-.35-.76-.77-.01-.41,.31-.75,.72-.76,0,0,.01,0,.02,0h5.88c.41,0,.74,.32,.75,.73,0,0,0,.01,0,.02h0c0,.42-.33,.76-.75,.77Z" fill="#002346"></path>
  <path d="M451.84,157.57l-3.39,8.1s-.03,.08-.06,.11h0l-.07,.08h0l-.09,.07h0s-.08,.07-.13,.09h-.54c-.05-.01-.1-.04-.13-.09h0l-.1-.07h0v-.08h0v-.11l-1.81-4.28-1.8,4.28s-.04,.07-.06,.11h0l-.09,.08h0l-.09,.07h0s-.07,.07-.11,.09h-.56s-.09-.05-.12-.09h0l-.11-.07h0l-.07-.08h0l-.07-.11-3.39-8.1c-.16-.39,.02-.83,.4-1,0,0,0,0,0,0,.38-.17,.82,0,.99,.38,0,0,0,.01,0,.02l2.71,6.39,1.78-4.24c.13-.28,.41-.47,.72-.46,.31,0,.59,.18,.72,.46l1.78,4.24,2.68-6.39c.17-.38,.62-.55,1-.39h0c.25,.28,.25,.71,0,.99Z" fill="#002346"></path>
  <path d="M476.81,157.96h-2.2v7.37c-.05,.42-.43,.72-.84,.67-.35-.04-.63-.32-.67-.67v-7.37h-2.19c-.41,.02-.76-.31-.78-.72,0,0,0-.01,0-.02h0c-.01-.4,.31-.74,.71-.76h5.94c.41,0,.75,.34,.75,.75,0,0,0,0,0,.01-.01,.39-.33,.71-.72,.74Z" fill="#002346"></path>
  <path d="M499.13,165.33v-8.11c-.01-.41,.32-.76,.73-.77,0,0,0,0,.01,0h4.52c.43,.07,.71,.47,.65,.89-.05,.33-.31,.59-.65,.65h-3.74v2.52h3.22c.42,.05,.73,.43,.68,.85-.04,.36-.32,.64-.68,.68h-3.22v3.32c-.01,.42-.35,.75-.77,.75-.41,0-.74-.32-.75-.73,0,0,0-.01,0-.02v-.03Z" fill="#002346"></path>
  <path d="M526.37,163.69c.25-.3,.69-.34,1-.1,.74,.63,1.67,1,2.64,1.06,.61,.01,1.21-.16,1.72-.51,.36-.21,.58-.59,.6-1,0-.16-.04-.31-.13-.44-.1-.17-.24-.31-.41-.42-.58-.33-1.23-.55-1.89-.65h0c-.61-.1-1.21-.28-1.78-.53-.52-.23-.96-.6-1.27-1.07-.22-.35-.33-.75-.32-1.16,.03-.81,.46-1.56,1.15-2,.69-.5,1.53-.76,2.38-.74,1.09,.07,2.14,.47,3,1.15,.33,.21,.42,.65,.21,.98,0,0,0,.01-.01,.02-.19,.34-.62,.45-.96,.26-.02,0-.03-.02-.04-.03h0c-.64-.51-1.42-.81-2.23-.88-.55,0-1.1,.16-1.55,.48-.3,.18-.5,.51-.52,.86,0,.14,.03,.27,.1,.39,.1,.14,.23,.26,.38,.36,.53,.31,1.11,.52,1.72,.61h0c.66,.11,1.3,.31,1.91,.58,.56,.25,1.04,.65,1.38,1.15,.21,.35,.33,.75,.33,1.16-.02,.86-.45,1.65-1.15,2.14-.75,.53-1.64,.8-2.56,.79-1.29-.07-2.53-.55-3.53-1.38-.32-.23-.41-.66-.21-1l.04-.08Z" fill="#002346"></path>
  <path d="M359.78,210.81c-.08-.08-.08-.22,0-.3,.09-.09,.22-.09,.31,0h0c.31,.31,.72,.48,1.16,.48,.9-.02,1.62-.75,1.63-1.65,0-.43-.17-.85-.48-1.15-.64-.64-1.67-.64-2.31,0,0,0,0,0,0,0-.08,.07-.21,.07-.29,0h0s0-.05,0-.07h0v-.07h0l.3-2.48c0-.06,.03-.12,.08-.15,.05-.01,.09-.01,.14,0h2.81c.12,0,.21,.08,.22,.2,0,0,0,.01,0,.02,0,.12-.1,.22-.22,.22h-2.67l-.31,1.74c.31-.17,.65-.27,1-.28,1.15,0,2.08,.93,2.08,2.08,0,1.15-.93,2.08-2.08,2.08-.55,0-1.08-.22-1.47-.61h0l.1-.06Z" fill="#002346"></path>
  <path d="M388.07,206.63c.41-.81,1.23-1.32,2.14-1.33,.11,0,.21,.08,.22,.19h0c0,.12-.09,.22-.21,.23-.76,.03-1.44,.48-1.78,1.16-.22,.38-.37,.8-.44,1.23,.74-.82,2.01-.88,2.82-.14,.82,.74,.88,2.01,.14,2.82-.73,.81-1.99,.88-2.81,.16-.41-.37-.65-.89-.67-1.44v-.41c-.02-.86,.17-1.71,.58-2.47Zm-.15,2.8s-.01,.07,0,.11v.06c.06,.89,.82,1.56,1.71,1.5,.89-.06,1.56-.82,1.5-1.71-.06-.89-.82-1.56-1.71-1.5-.81,.05-1.45,.7-1.5,1.5v.04Z" fill="#002346"></path>
  <path d="M416.64,211.13l2.31-5.38h-3c-.11,0-.2-.1-.21-.21,0-.12,.09-.21,.21-.21h3.18s.09-.02,.13,0c.05,.02,.09,.07,.11,.13,0,.02,0,.05,0,.07,.02,.03,.02,.08,0,.11l-2.33,5.58c-.03,.08-.1,.14-.19,.14-.03,.01-.07,.01-.1,0-.08-.05-.12-.14-.11-.23Z" fill="#002346"></path>
  <path d="M445.24,205.3c.7-.01,1.28,.55,1.29,1.25,0,.42-.2,.82-.54,1.06,1.02,.42,1.51,1.58,1.1,2.61-.42,1.02-1.58,1.51-2.61,1.1s-1.51-1.58-1.1-2.61c.2-.5,.6-.89,1.1-1.1-.31-.24-.5-.61-.51-1,0-.7,.56-1.27,1.26-1.28h0v-.03Zm.01,5.7c.86,.01,1.57-.68,1.58-1.54,0,0,0,0,0-.01h0c.01-.87-.69-1.59-1.56-1.6-.78-.01-1.46,.56-1.58,1.33,0,.09,0,.18,0,.27,0,.85,.69,1.55,1.54,1.56h.02Zm0-3.57c.47-.01,.85-.4,.86-.87,0-.47-.39-.86-.86-.86h0c-.47,0-.84,.38-.84,.85h0c0,.47,.37,.86,.84,.87h0Z" fill="#002346"></path>
  <path d="M473.7,205.3c1.02,0,1.89,.76,2,1.78h0v.53c.01,.85-.19,1.69-.58,2.44-.43,.79-1.25,1.3-2.15,1.33h0c-.11-.02-.19-.13-.16-.25,0,0,0,0,0-.01,.02-.08,.08-.15,.16-.17,.76-.03,1.44-.47,1.78-1.15,.21-.38,.36-.8,.44-1.23-.74,.83-2.01,.9-2.84,.16s-.9-2.01-.16-2.84c.38-.43,.93-.68,1.5-.69v.1Zm1.62,2c0-.88-.72-1.6-1.6-1.6-.88,0-1.6,.72-1.6,1.6,0,.88,.71,1.59,1.59,1.6,.88,0,1.6-.71,1.61-1.59,0,0,0,0,0-.01Z" fill="#002346"></path>
  <path d="M499.72,205.92l-.86,.51h-.11c-.07,0-.14-.04-.18-.1-.06-.1-.03-.23,.07-.29,0,0,0,0,0,0h0l1.15-.72c.1-.06,.23-.03,.29,.07,0,0,0,0,0,0,.02,.05,.02,.11,0,.16v5.67c0,.12-.09,.21-.21,.21,0,0,0,0-.01,0-.11,0-.2-.09-.2-.2,0,0,0,0,0-.01l.06-5.3Z" fill="#002346"></path>
  <path d="M501.75,208.36c-.02-.76,.18-1.5,.59-2.14,.32-.54,.89-.89,1.52-.92,.63,.03,1.21,.38,1.54,.92,.39,.64,.6,1.39,.59,2.14,.01,.75-.19,1.49-.59,2.13-.43,.82-1.44,1.14-2.27,.73-.32-.16-.58-.42-.74-.74-.42-.63-.65-1.36-.64-2.12Zm.43,0c-.02,.67,.16,1.33,.52,1.9,.24,.42,.67,.7,1.15,.74,.48-.05,.91-.32,1.16-.74,.69-1.17,.69-2.63,0-3.8-.24-.42-.67-.7-1.16-.74-.49,.03-.92,.31-1.15,.74-.36,.57-.54,1.23-.52,1.9Z" fill="#002346"></path>
  <path d="M528.79,205.92l-.86,.51h-.11c-.12-.01-.21-.12-.2-.24,0-.05,.03-.1,.07-.14h0l1.15-.72c.1-.05,.22-.02,.28,.07,.02,.05,.02,.11,0,.16v5.66c0,.11-.1,.2-.21,.21-.12,0-.21-.09-.22-.21l.1-5.3Z" fill="#002346"></path>
  <path d="M531.73,205.92l-.87,.51h-.1c-.08,0-.15-.04-.19-.1-.06-.1-.02-.23,.08-.29,0,0,0,0,0,0h0l1.16-.72c.1-.06,.23-.03,.29,.07,0,0,0,0,0,0,.02,.05,.02,.11,0,.16v5.67c0,.12-.09,.21-.21,.21h0c-.11,0-.2-.1-.21-.21l.05-5.3Z" fill="#002346"></path>
  <path d="M445.62,182.5l-.86,.51s-.07,0-.11,0c-.08,0-.14-.04-.18-.11-.06-.09-.03-.22,.06-.28,0,0,0,0,0,0h0l1.16-.71c.09-.06,.22-.03,.28,.06,0,0,0,0,0,0h0s.02,.1,0,.15v5.63c.01,.1-.06,.2-.17,.21,0,0,0,0-.01,0h0c-.12,0-.21-.09-.21-.21l.03-5.26Z" fill="#002346"></path>
  <path d="M471.85,187.63l2.85-2.59c.34-.29,.53-.71,.54-1.15-.01-.87-.72-1.56-1.59-1.55h0c-.39,0-.77,.13-1.06,.39l-.3,.28c-.08,.08-.2,.08-.28,0h0c-.08-.08-.08-.21,0-.3,0,0,0,0,0,0h0l.3-.28c.37-.33,.85-.51,1.35-.52,1.1,0,2,.89,2.01,1.99,0,.57-.24,1.12-.67,1.5l-2.45,2.21h2.9c.12,0,.21,.09,.21,.21h0c0,.12-.09,.21-.21,.21h-3.47c-.06,.01-.12-.01-.16-.06-.09-.09-.09-.22,0-.31l.03-.03Z" fill="#002346"></path>
  <path d="M504,182.27l-1.58,1.62c.38,.09,.72,.28,1,.56,.39,.39,.61,.92,.6,1.47,0,.55-.21,1.09-.61,1.47-.39,.39-.92,.61-1.47,.61-.55,0-1.08-.21-1.46-.61-.08-.08-.08-.22,0-.3,.08-.08,.22-.08,.3,0,.65,.62,1.67,.62,2.32,0,.3-.31,.47-.73,.47-1.16,.01-.43-.16-.85-.47-1.15-.31-.31-.72-.48-1.16-.48-.07,0-.13-.03-.17-.09h0c-.08-.08-.08-.2,0-.28,0,0,0,0,0,0h0l1.51-1.58h-2.31c-.11,.01-.21-.07-.22-.18,0,0,0,0,0-.01h0c0-.12,.09-.21,.21-.21,0,0,0,0,.01,0h2.86c.12,0,.21,.08,.22,.2,0,0,0,0,0,.01h0v.07l-.05,.05Z" fill="#002346"></path>
  <path d="M531.13,186.74h-3.35s-.08,.02-.12,0c-.07-.07-.08-.18-.02-.25,0,0,.01-.01,.02-.02h0l3.55-4.41h0c.07-.07,.18-.07,.25,0,0,0,0,0,0,0h0s.05,.06,.07,.1h0v4.23h.41c.12,0,.21,.09,.21,.21h0c0,.12-.09,.21-.21,.21h-.41v1.05c0,.12-.09,.21-.21,.21h0c-.12,0-.21-.09-.21-.21h0s.01-1.12,.01-1.12Zm0-.41v-3.59l-2.89,3.59h2.89Z" fill="#002346"></path>
  <path d="M358.79,251.74l-.87,.51h-.1c-.08,0-.14-.04-.18-.11-.06-.09-.03-.22,.06-.28,0,0,0,0,0,0h0l1.15-.71c.1-.06,.23-.03,.29,.07h0c.02,.05,.02,.11,0,.16v5.62c0,.11-.08,.21-.19,.22h0c-.11-.01-.2-.11-.2-.22l.03-5.26Z" fill="#002346"></path>
  <path d="M362.84,251.11c1.02,0,1.89,.76,2,1.78h0v.54c0,.85-.19,1.69-.58,2.44-.43,.79-1.23,1.3-2.13,1.35h0c-.12,0-.21-.09-.21-.21,0-.12,.08-.21,.2-.22,0,0,0,0,0,0h0c.76-.03,1.45-.48,1.78-1.16,.21-.36,.35-.75,.44-1.15-.74,.83-2.02,.9-2.85,.15s-.9-2.02-.15-2.85c.38-.43,.93-.68,1.5-.68h0Zm1.61,2c0-.88-.71-1.6-1.59-1.61-.88,0-1.6,.71-1.61,1.59,0,.88,.71,1.6,1.59,1.61,.88,0,1.6-.71,1.61-1.59h0Z" fill="#002346"></path>
  <path d="M384.69,256.86l2.86-2.58c.33-.29,.52-.71,.53-1.15-.01-.88-.74-1.58-1.61-1.56-.38,0-.75,.15-1.04,.4l-.3,.27c-.08,.07-.2,.07-.28,0h0c-.08-.08-.08-.2,0-.28h0l.29-.27c.37-.34,.86-.52,1.36-.52,1.1,0,2,.9,2,2,0,.56-.24,1.1-.65,1.49l-2.46,2.22h2.91c.11,0,.2,.09,.2,.2,0,0,0,0,0,.01,0,.11-.09,.21-.2,.22h-3.47c-.06,0-.12-.03-.17-.07-.09-.09-.09-.22,0-.31l.03-.07Z" fill="#002346"></path>
  <path d="M389.95,254.22c-.01-.76,.19-1.5,.59-2.15,.46-.85,1.51-1.16,2.36-.7,.3,.16,.54,.4,.7,.7,.4,.65,.61,1.39,.6,2.15,0,.75-.2,1.49-.6,2.13-.43,.84-1.46,1.18-2.3,.75h0c-.32-.17-.59-.43-.76-.75-.4-.64-.61-1.38-.59-2.13Zm.43,0c-.02,.67,.17,1.33,.52,1.9,.24,.42,.67,.7,1.16,.74,.48-.05,.91-.32,1.16-.74,.71-1.17,.71-2.63,0-3.8-.24-.42-.67-.7-1.16-.74-.49,.03-.93,.31-1.16,.74-.35,.57-.54,1.23-.52,1.9Z" fill="#002346"></path>
  <path d="M414.32,256.86l2.86-2.58c.33-.29,.53-.71,.53-1.15-.02-.86-.71-1.55-1.57-1.57-.4,0-.78,.14-1.07,.41l-.29,.27c-.08,.08-.22,.08-.3,0h0c-.08-.08-.08-.2,0-.28h0l.28-.27c.38-.34,.86-.52,1.37-.52,1.1,0,2,.9,2,2,0,.57-.24,1.11-.66,1.49l-2.44,2.22h2.89c.12,0,.21,.09,.21,.21,0,.12-.09,.21-.21,.22h-3.47c-.06,0-.12-.03-.16-.07-.1-.1-.1-.26,0-.35,0,0,.02-.02,.03-.03Z" fill="#002346"></path>
  <path d="M420.5,251.74l-.87,.51h-.1c-.08,0-.15-.04-.19-.11-.05-.1-.02-.22,.08-.28h0l1.15-.71c.1-.06,.23-.03,.29,.07h0c.02,.05,.02,.11,0,.16v5.62c0,.11-.08,.21-.19,.22h0c-.11-.01-.2-.11-.2-.22l.03-5.26Z" fill="#002346"></path>
  <path d="M440.79,256.86l2.86-2.58c.33-.29,.52-.71,.53-1.15-.01-.88-.74-1.58-1.61-1.56-.38,0-.75,.15-1.04,.4l-.29,.27c-.08,.08-.21,.08-.29,0h0c-.08-.08-.08-.2,0-.28h0l.29-.27c.37-.34,.86-.52,1.36-.52,1.1,0,2,.9,2,2,0,.57-.24,1.11-.66,1.49l-2.44,2.22h2.9c.11,0,.2,.09,.2,.2,0,0,0,0,0,.01,0,.11-.09,.21-.2,.22h-3.47c-.06,0-.12-.03-.17-.07-.09-.09-.09-.22,0-.31l.03-.07Z" fill="#002346"></path>
  <path d="M445.96,256.86l2.86-2.58c.61-.62,.59-1.61-.03-2.22-.57-.56-1.48-.6-2.09-.09l-.3,.27c-.08,.07-.2,.07-.28,0h0c-.08-.08-.08-.22,0-.3h0l.3-.27c.37-.34,.85-.52,1.35-.52,.56-.03,1.11,.19,1.49,.6,.74,.82,.68,2.08-.13,2.82l-2.45,2.22h2.9c.12,0,.21,.09,.21,.21,0,.12-.09,.21-.21,.22h-3.45c-.06,0-.12-.02-.16-.07-.07-.08-.08-.2-.01-.29Z" fill="#002346"></path>
  <path d="M469.28,256.86l2.86-2.58c.32-.3,.51-.71,.52-1.15-.02-.88-.74-1.58-1.62-1.56h0c-.37,.01-.72,.16-1,.4l-.3,.27c-.08,.08-.22,.08-.3,0h0c-.08-.09-.08-.22,0-.31l.3-.27c.37-.34,.85-.52,1.35-.52,.56,0,1.1,.23,1.47,.66,.34,.36,.53,.84,.53,1.33,0,.57-.24,1.11-.66,1.49l-2.45,2.22h2.9c.12,0,.21,.09,.21,.21,0,.12-.09,.21-.21,.22h-3.47c-.06,0-.11-.03-.15-.07-.09-.09-.09-.22,0-.31l.02-.03Z" fill="#002346"></path>
  <path d="M478.13,251.49l-1.58,1.64c.39,.08,.76,.27,1.05,.55,.39,.39,.61,.93,.6,1.48,0,.55-.21,1.09-.61,1.47-.39,.38-.91,.59-1.46,.59-.55,0-1.07-.22-1.46-.61-.07-.08-.07-.21,0-.29h0c.08-.08,.22-.08,.3,0,.63,.64,1.66,.65,2.31,.02,.31-.31,.49-.73,.48-1.18,0-.43-.16-.85-.47-1.16-.31-.3-.73-.47-1.16-.48-.07,0-.13-.03-.17-.08h0c-.09-.09-.09-.22,0-.31h0l1.52-1.56h-2.31c-.12,0-.22-.1-.22-.22s.1-.22,.22-.22h2.86c.11,0,.21,.09,.22,.2v.12s-.08,.06-.12,.04Z" fill="#002346"></path>
  <path d="M497.56,256.86l2.86-2.58c.33-.29,.52-.71,.53-1.15-.01-.88-.74-1.58-1.61-1.56-.38,0-.75,.15-1.04,.4l-.29,.27c-.08,.08-.21,.08-.29,0h0c-.08-.08-.08-.2,0-.28h0l.29-.27c.37-.34,.86-.52,1.36-.52,1.1,0,2,.9,2,2,0,.57-.24,1.11-.66,1.49l-2.44,2.22h2.86c.11,0,.2,.09,.2,.2,0,0,0,0,0,.01,0,.11-.09,.21-.2,.22h-3.47c-.06,0-.12-.03-.17-.07-.09-.09-.09-.22,0-.31l.07-.07Z" fill="#002346"></path>
  <path d="M505.98,255.98h-3.34s-.09,.02-.13,0c-.07-.07-.08-.19,0-.27h0s3.54-4.41,3.54-4.41h0c.08-.07,.2-.07,.28,0h0s.06,.07,.08,.11v4.26h.42c.11-.03,.23,.04,.26,.15,0,0,0,0,0,.01,.03,.11-.04,.23-.15,.26,0,0,0,0-.01,0-.03,.01-.07,.01-.1,0h-.42v1c.03,.12-.05,.24-.16,.26-.12,.03-.24-.05-.27-.16h0s-.01-.07,0-.1v-1.11Zm0-.43v-3.58l-2.85,3.58h2.85Z" fill="#002346"></path>
  <path d="M525.49,256.86l2.86-2.58c.32-.3,.51-.71,.52-1.15-.01-.87-.73-1.57-1.6-1.56,0,0,0,0-.01,0-.37,.02-.72,.16-1,.4l-.3,.27c-.08,.08-.21,.08-.29,0h0c-.08-.09-.08-.22,0-.31l.3-.27c.37-.34,.86-.52,1.36-.52,.56,0,1.1,.23,1.47,.66,.34,.36,.53,.84,.53,1.33,0,.57-.24,1.11-.66,1.49l-2.45,2.22h2.88c.11,0,.2,.1,.21,.21,0,.11-.1,.21-.21,.22h-3.47c-.06,0-.11-.03-.15-.07-.09-.09-.09-.22,0-.31v-.03Z" fill="#002346"></path>
  <path d="M530.79,256.63c-.08-.08-.08-.22,0-.3,.08-.09,.21-.09,.3-.01,0,0,0,0,.01,.01h0c.65,.64,1.68,.63,2.32-.02,.3-.31,.47-.72,.47-1.15,0-.43-.16-.85-.47-1.16-.3-.31-.72-.48-1.16-.47-.43,0-.85,.16-1.15,.47-.08,.08-.21,.08-.3,0,0,0,0,0,0,0h0m0-.06h0v-.07h0l.3-2.48c0-.06,.03-.12,.08-.15,.04-.02,.1-.02,.14,0h2.85c.12,0,.22,.1,.22,.22s-.1,.22-.22,.22h-2.67l-.22,1.82c.3-.18,.65-.28,1-.28,1.15,0,2.07,.94,2.07,2.09,0,.54-.22,1.06-.6,1.45-.4,.38-.93,.6-1.48,.61-.58-.03-1.12-.3-1.49-.74l.02-2.69Z" fill="#002346"></path>
  <path d="M356.9,279.61l2.85-2.58c.65-.58,.7-1.57,.12-2.22,0,0,0,0,0,0-.3-.33-.72-.52-1.17-.52-.39,0-.77,.14-1.06,.41l-.31,.26c-.07,.07-.19,.08-.27,0h0c-.08-.08-.08-.2,0-.28,0,0,0,0,0,0h0l.3-.27c.37-.33,.85-.51,1.35-.51,1.1,0,2,.9,1.99,2.01,0,.56-.24,1.1-.65,1.47l-2.45,2.21h2.9c.12,0,.21,.09,.21,.21,0,0,0,0,0,.01,0,.11-.1,.2-.21,.21h-3.47c-.05,.02-.11,.02-.16,0-.1-.07-.13-.21-.06-.31,.02-.03,.06-.07,.09-.09Z" fill="#002346"></path>
  <path d="M362.74,275.22c.42-.8,1.24-1.31,2.15-1.33,.11-.03,.23,.04,.26,.15,0,0,0,0,0,.01,.03,.11-.04,.23-.15,.26,0,0,0,0-.01,0h-.1c-.76,.03-1.45,.47-1.78,1.16-.21,.38-.36,.79-.44,1.21,.74-.82,2-.89,2.82-.15,.82,.74,.89,2,.15,2.82-.74,.82-2,.89-2.82,.15-.41-.36-.65-.88-.66-1.42v-.39c-.02-.86,.18-1.71,.58-2.47Zm-.15,2.79s-.01,.08,0,.12v.09c.06,.88,.82,1.55,1.71,1.49,.88-.06,1.55-.82,1.49-1.71-.06-.88-.82-1.55-1.71-1.49-.8,.05-1.43,.69-1.49,1.49h0Z" fill="#002346"></path>
  <path d="M385.22,279.61l2.86-2.58c.61-.62,.59-1.61-.03-2.22-.57-.56-1.48-.6-2.09-.09l-.3,.27c-.08,.08-.2,.08-.28,0h0c-.08-.08-.08-.22,0-.3h0l.3-.28c.38-.33,.87-.51,1.37-.51,1.1,0,2,.9,2,2h0c0,.57-.24,1.11-.66,1.49l-2.45,2.21h2.9c.12,0,.21,.09,.21,.21h0c0,.12-.09,.21-.21,.21h-3.47c-.05,.02-.11,.02-.16,0-.11-.06-.15-.19-.1-.3,.03-.05,.06-.08,.11-.11Z" fill="#002346"></path>
  <path d="M391.25,279.68l2.31-5.36h-3c-.11,0-.2-.1-.21-.21,0-.12,.09-.21,.21-.21h3.37c.05,.03,.09,.08,.11,.14,0,.02,0,.05,0,.07,.01,.04,.01,.07,0,.11l-2.31,5.64c-.04,.07-.12,.12-.2,.12h-.16c-.12-.05-.17-.18-.12-.3Z" fill="#002346"></path>
  <path d="M413.05,279.61l2.86-2.58c.65-.56,.71-1.54,.15-2.19,0,0,0,0-.01-.01h0c-.6-.63-1.59-.68-2.24-.1l-.3,.26c-.08,.08-.2,.08-.28,0h0c-.08-.08-.08-.21,0-.29h0l.3-.27c.38-.33,.86-.51,1.36-.51,1.1,0,2,.9,1.99,2.01,0,.56-.24,1.1-.65,1.47l-2.45,2.21h2.9c.12,0,.21,.09,.21,.21h0c0,.11-.1,.2-.21,.21h-3.47c-.05,.02-.11,.02-.16,0-.1-.07-.13-.2-.06-.3,0,0,0,0,0,0,.01-.04,.03-.08,.06-.11Z" fill="#002346"></path>
  <path d="M420.21,273.87c.7,0,1.26,.55,1.27,1.25,0,0,0,0,0,.01-.01,.39-.2,.76-.52,1,1.02,.42,1.51,1.58,1.1,2.61-.42,1.02-1.58,1.51-2.61,1.1-1.02-.42-1.51-1.58-1.1-2.61,.2-.5,.6-.89,1.1-1.1-.31-.24-.49-.61-.51-1,0-.69,.55-1.25,1.24-1.26,0,0,.01,0,.02,0h.01Zm0,5.7c.87,.01,1.59-.69,1.6-1.56,.01-.87-.69-1.59-1.56-1.6-.87-.01-1.59,.69-1.6,1.56,0,0,0,0,0,0h0c-.01,.86,.68,1.57,1.54,1.58,0,0,0,0,.01,0h.01Zm0-3.57c.47,0,.86-.39,.86-.86s-.38-.85-.85-.85h0c-.46,0-.83,.36-.84,.82h0c-.03,.47,.33,.87,.8,.9,0,0,0,0,.01,0h.02Z" fill="#002346"></path>
  <path d="M440.6,279.61l2.87-2.58c.32-.3,.51-.71,.52-1.15-.02-.88-.75-1.57-1.62-1.56-.38,0-.74,.15-1.02,.4l-.29,.27c-.08,.08-.22,.08-.3,0h0c-.08-.08-.08-.2,0-.28h0l.3-.28c.37-.33,.85-.51,1.35-.51,1.1,0,2,.9,2,2h0c0,.56-.24,1.1-.65,1.49l-2.45,2.21h2.89c.12,0,.21,.09,.21,.21h0c0,.12-.09,.21-.21,.21h-3.47c-.05,.02-.11,.02-.16,0-.09-.09-.09-.25,0-.34h0s.03-.09,.03-.09Z" fill="#002346"></path>
  <path d="M447.9,273.87c1.02,0,1.89,.76,2,1.78h0v.57c.01,.85-.19,1.69-.59,2.44-.43,.79-1.24,1.3-2.14,1.33h0c-.11,.01-.2-.06-.22-.17h0c0-.12,.08-.21,.2-.23,.77-.03,1.46-.47,1.8-1.16,.21-.38,.36-.79,.43-1.22-.75,.81-2.02,.86-2.83,.1-.81-.75-.86-2.02-.1-2.83,.36-.39,.87-.62,1.4-.64h0l.05,.02Zm1.6,2c.01-.88-.7-1.61-1.58-1.62-.88-.01-1.61,.7-1.62,1.58-.01,.88,.7,1.61,1.58,1.62,0,0,0,0,0,0h0c.87,0,1.59-.7,1.6-1.57h0Z" fill="#002346"></path>
  <path d="M472.65,274.22l-1.59,1.63c.4,.07,.77,.26,1.05,.55,.39,.39,.61,.92,.6,1.47,0,.55-.21,1.09-.61,1.47-.39,.39-.92,.61-1.47,.61-.55,.01-1.07-.21-1.45-.61-.08-.07-.09-.2-.02-.28,0,0,.01-.01,.02-.02,.08-.08,.22-.08,.3,0h0c.31,.3,.72,.47,1.15,.47,.43,0,.85-.17,1.16-.47,.64-.64,.64-1.68,0-2.32h0c-.3-.31-.72-.48-1.15-.48-.07,0-.13-.03-.17-.09h0c-.08-.08-.08-.21,0-.3h0s1.51-1.58,1.51-1.58h-2.31c-.11,0-.21-.08-.22-.19h0c0-.11,.08-.2,.19-.21,0,0,0,0,.01,0h2.88c.11,0,.21,.08,.22,.19v.16h-.1Z" fill="#002346"></path>
  <path d="M474.37,276.92c-.02-.76,.19-1.5,.59-2.14,.46-.85,1.51-1.16,2.36-.7,.3,.16,.54,.4,.7,.7,.79,1.32,.79,2.96,0,4.28-.45,.85-1.49,1.17-2.34,.72-.31-.16-.56-.41-.72-.72-.41-.64-.61-1.38-.59-2.14Zm.43,0c-.02,.67,.16,1.34,.52,1.91,.24,.42,.67,.69,1.15,.73,.48-.05,.91-.32,1.16-.73,.69-1.18,.69-2.63,0-3.81-.24-.42-.68-.69-1.16-.73-.48,.03-.92,.31-1.15,.73-.36,.57-.54,1.23-.52,1.9h0Z" fill="#002346"></path>
  <path d="M359.35,228.74l-.87,.51h-.1c-.07,0-.14-.04-.18-.1-.06-.09-.04-.21,.05-.28h0l1.16-.72c.1-.04,.22-.01,.29,.08,.01,.05,.01,.11,0,.16v5.63c0,.11-.1,.2-.21,.2-.11,0-.21-.09-.22-.2l.08-5.28Z" fill="#002346"></path>
  <path d="M361.34,233.88l2.85-2.58c.33-.3,.53-.72,.54-1.16-.02-.88-.75-1.57-1.62-1.55-.38,0-.74,.15-1.03,.4l-.29,.26c-.08,.08-.2,.08-.28,0h0c-.07-.07-.07-.18,0-.25,0,0,0,0,0,0h0l.29-.29c.38-.32,.86-.5,1.36-.51,1.1,0,2,.9,2,2h0c0,.57-.24,1.12-.66,1.5l-2.44,2.21h2.89c.12,0,.21,.09,.21,.21s-.09,.21-.21,.21h-3.47s-.11,.03-.16,0c-.1-.05-.15-.18-.09-.28,0,0,0,0,0,0,0-.07,.05-.12,.11-.15Z" fill="#002346"></path>
  <path d="M387.34,228.74l-.87,.51h-.1c-.08,0-.15-.04-.19-.1-.06-.1-.02-.23,.08-.29,0,0,0,0,0,0h0l1.16-.72c.1-.05,.23-.01,.29,.08,.02,.05,.02,.11,0,.16v5.63c0,.11-.09,.2-.2,.2,0,0,0,0-.01,0-.11,0-.21-.09-.22-.2l.06-5.27Z" fill="#002346"></path>
  <path d="M392.98,228.51l-1.57,1.63c.4,.08,.76,.27,1.05,.56,.81,.81,.81,2.13,0,2.95s-2.13,.81-2.95,0c-.08-.09-.08-.22,0-.31,.08-.08,.22-.08,.3,0h0c.3,.31,.72,.48,1.15,.48,.91,0,1.64-.74,1.63-1.65,0-.42-.17-.83-.46-1.13h0c-.3-.31-.72-.48-1.16-.47-.07,0-.14-.04-.18-.1h0c-.08-.08-.08-.2,0-.28,0,0,0,0,0,0h0l1.51-1.56h-2.31c-.12,0-.22-.1-.22-.22s.1-.22,.22-.22h2.88c.12,0,.21,.08,.22,.2,0,0,0,0,0,0v.11l-.11,.03Z" fill="#002346"></path>
  <path d="M414.93,228.74l-.87,.51h-.11c-.07,0-.14-.04-.17-.1-.06-.09-.04-.21,.05-.28h0l1.16-.72c.1-.05,.21-.01,.27,.08,.02,.05,.02,.11,0,.16v5.63c0,.11-.09,.2-.2,.2h0c-.12,0-.21-.08-.22-.2,0,0,0,0,0,0l.09-5.28Z" fill="#002346"></path>
  <path d="M420.33,232.99h-3.34s-.09,.02-.13,0c-.08-.08-.08-.2,0-.28h0l3.54-4.41h0c.08-.08,.2-.08,.28,0h0l.08,.12v4.25h.41c.12,0,.21,.09,.21,.21s-.09,.21-.21,.21h-.41v1.05c0,.12-.09,.21-.21,.21h0c-.11,0-.2-.1-.21-.21v-1.15Zm-.01-.42v-3.58l-2.89,3.58h2.89Z" fill="#002346"></path>
  <path d="M443.03,228.74l-.9,.48h-.11c-.08,.01-.15-.03-.18-.1-.06-.1-.03-.23,.07-.29,0,0,0,0,0,0h0l1.15-.72c.1-.05,.23-.01,.29,.08,.02,.05,.02,.11,0,.16v5.63c0,.11-.09,.2-.2,.2h0c-.11,0-.2-.08-.21-.19,0,0,0,0,0-.01l.09-5.24Z" fill="#002346"></path>
  <path d="M445.13,233.65c-.08-.08-.08-.22,0-.3,.09-.09,.22-.09,.31,0h0c.31,.3,.72,.46,1.15,.46,.44,0,.85-.17,1.16-.48,.31-.3,.48-.72,.49-1.15,0-.43-.18-.85-.48-1.16-.31-.3-.73-.47-1.16-.46-.43-.01-.85,.16-1.15,.47-.08,.08-.21,.08-.3,0,0,0,0,0,0,0h0s-.01-.05,0-.07h0v-.07h0l.3-2.46c0-.12,.09-.21,.21-.21,0,0,0,0,.01,0h2.85c.12,0,.22,.1,.22,.22s-.1,.22-.22,.22h-2.71l-.22,1.82c.3-.18,.65-.27,1-.28,.55-.01,1.08,.21,1.47,.6,.39,.39,.6,.92,.6,1.47,.04,1.1-.82,2.03-1.93,2.07-.05,0-.1,0-.14,0-.56-.02-1.09-.27-1.46-.69Z" fill="#002346"></path>
  <path d="M471.22,228.74l-.87,.51h-.1c-.08,.01-.15-.03-.18-.1-.06-.09-.04-.22,.05-.28h0s1.15-.72,1.15-.72c.1-.05,.23-.01,.29,.08,.02,.05,.02,.11,0,.16v5.63c0,.11-.09,.2-.2,.21-.12,0-.21-.09-.21-.21h0l.07-5.28Z" fill="#002346"></path>
  <path d="M473.87,229.46c.42-.8,1.25-1.31,2.15-1.33,.12,0,.21,.08,.22,.2,0,0,0,0,0,.01,0,.12-.1,.22-.22,.23-.77,.01-1.46,.46-1.78,1.16-.21,.38-.36,.79-.44,1.22,.74-.82,2-.89,2.82-.15s.89,2,.15,2.82c-.74,.82-2,.89-2.82,.15-.41-.36-.65-.88-.66-1.42v-.4c-.02-.87,.18-1.72,.58-2.49Zm-.15,2.81v.1s.01,.05,0,.07c.06,.88,.81,1.55,1.7,1.5,.88-.06,1.55-.81,1.5-1.7-.06-.88-.81-1.55-1.7-1.5-.8,.05-1.45,.69-1.5,1.5v.03Z" fill="#002346"></path>
  <path d="M500,228.74l-.87,.48h-.1c-.08,0-.15-.03-.19-.1-.05-.1-.02-.23,.08-.29h0l1.15-.72c.1-.05,.23-.01,.29,.08,.02,.05,.02,.11,0,.16v5.63c.01,.1-.06,.19-.16,.2,0,0-.01,0-.02,0h0c-.11,0-.2-.09-.21-.2l.03-5.24Z" fill="#002346"></path>
  <path d="M502.92,233.96l2.31-5.38h-3c-.12,0-.21-.09-.21-.21,0-.11,.1-.2,.21-.21h3.37c.05,.03,.09,.08,.11,.14,.01,.02,.01,.05,0,.07,.01,.04,.01,.08,0,.12l-2.37,5.63c-.03,.08-.11,.13-.19,.13h-.1c-.11-.05-.17-.17-.13-.29Z" fill="#002346"></path>
  <path d="M527.52,228.74l-.87,.51h-.1c-.08,0-.15-.03-.19-.1-.06-.1-.02-.23,.08-.29,0,0,0,0,0,0h0l1.16-.72c.1-.05,.23-.01,.29,.08,.02,.05,.02,.11,0,.16v5.63c0,.1-.07,.19-.18,.2,0,0,0,0-.01,0h0c-.11,0-.2-.09-.21-.2l.03-5.27Z" fill="#002346"></path>
  <path d="M531.44,228.13c.7,0,1.27,.56,1.28,1.26h0c-.01,.4-.21,.77-.53,1,1.02,.42,1.51,1.58,1.1,2.61-.42,1.02-1.58,1.51-2.61,1.1-1.02-.42-1.51-1.58-1.1-2.61,0,0,0-.01,0-.02,.21-.49,.6-.88,1.09-1.08-.31-.24-.49-.61-.5-1,0-.69,.55-1.25,1.24-1.26,0,0,.01,0,.02,0Zm0,5.7c.87,0,1.57-.69,1.58-1.56,0-.87-.69-1.57-1.56-1.58-.87,0-1.57,.69-1.58,1.56h0c0,.86,.7,1.56,1.56,1.56v.02Zm0-3.57c.47-.01,.85-.4,.86-.87-.01-.47-.39-.84-.86-.84-.46,0-.83,.36-.84,.82,0,0,0,.01,0,.02h0c0,.47,.37,.86,.84,.87Z" fill="#002346"></path>
  <polygon points="354.4 123.5 354.4 117.55 350.82 120.52 354.4 123.5" fill="#fff" stroke="#002346" stroke-miterlimit="10"></polygon>
  <polygon points="537.15 117.55 537.15 123.5 540.73 120.52 537.15 117.55" fill="#fff" stroke="#002346" stroke-miterlimit="10"></polygon>
  <path d="M434.35,121.22c.33,.97,1.39,1.49,2.36,1.16,.74-.25,1.24-.94,1.26-1.72v-5.36c0-.41,.34-.75,.75-.75s.75,.34,.75,.75h0v5.36c-.03,1.86-1.56,3.34-3.41,3.31-1.43-.02-2.69-.95-3.14-2.31-.13-.37,.07-.78,.44-.91h0c.38-.13,.8,.07,.94,.45l.05,.02Z" fill="#002346"></path>
  <path d="M444.13,124.04c-1.55-.01-2.8-1.26-2.81-2.81v-3.22c.05-.39,.4-.68,.8-.63,.33,.04,.59,.3,.63,.63v3.21c-.02,.74,.57,1.35,1.31,1.37,0,0,.01,0,.02,0h.05c.77,.01,1.4-.6,1.41-1.37h0v-3.22c-.01-.38,.29-.7,.67-.71,0,0,.01,0,.02,0h0c.39,0,.71,.32,.72,.71v3.22c-.02,1.55-1.27,2.8-2.82,2.82Z" fill="#002346"></path>
  <path d="M450.18,114.6c.41,0,.74,.33,.75,.74v8c-.05,.41-.42,.71-.83,.66-.35-.04-.62-.31-.66-.66v-8c0-.41,.33-.74,.74-.74Z" fill="#002346"></path>
  <path d="M458.66,118.01v5.09c.02,1.76-1.39,3.21-3.15,3.23,0,0,0,0-.01,0h-.05c-.49,0-.97-.12-1.4-.34-.37-.15-.54-.57-.39-.94,0-.02,.02-.04,.03-.06h0c.2-.35,.64-.49,1-.3,.24,.13,.51,.2,.79,.2,.76,0,1.43-.5,1.67-1.23-.39,.22-.83,.33-1.28,.33-1.54,0-2.8-1.23-2.84-2.77v-3.18c0-.38,.31-.7,.69-.71,.38-.02,.7,.28,.72,.66,0,0,0,0,0,.01v3.22c0,.77,.63,1.4,1.4,1.4,.77,0,1.39-.63,1.4-1.4v-3.18c-.02-.37,.27-.69,.64-.71h.05c.39,0,.71,.29,.73,.68Z" fill="#002346"></path>
  <path d="M218.4,539.58l5,64.24,5.18,1.4h0l19.39,5.24-2-18.72,7.45-38.47c3.7-16.76,8.88-33.15,15.47-49,6.82-11.73,7.89-25.94,7.89-25.94l4.69-50.11,.45-4.75c-19.65,3.66-33.08-1.34-33.08-1.34v4.28h-7.56l-9.79,9.5-13.09,103.67Z" fill="#f2b3c1" stroke="#002346" stroke-miterlimit="10" stroke-width=".98"></path>
  <path d="M243.27,426.37s-5.34,67.5-9.37,75.35c-5.74,14.99-8.8,30.87-9.06,46.92l-1.86,49.36-2.37,17.5-14.7-7.28s-18.35-72.6-9.07-94.6c0,0,4-18.57,.61-34.08,0,0-5.25-38.19-5.95-54.84l51.77,1.67Z" fill="#f2b3c1" stroke="#002346" stroke-miterlimit="10" stroke-width=".98"></path>
  <path d="M187.13,425.07l39.17,.82,22.5,.48v-4.28c14.32,5.55,40.15,0,40.15,0v-81.87c-.72,1.06-1.83,1.78-3.09,2-9.22,5.64-42.94,2.42-58.24,0-15.3-2.42-31.41-4.83-31.41-4.83-8.42,13.3-9.08,87.68-9.08,87.68Z" fill="#ffbb00" stroke="#002346" stroke-miterlimit="10"></path>
  <path d="M217.13,219.42l.38,8.85,.18,4.21c12,14.29,26.79,14.94,33.67,14.3,3.03-.28,5.39-2.76,5.52-5.8,.19-4.56-3-8.12-5.41-10.12-.42-.36-.82-.66-1.17-.92-.85-.62-1.39-1.57-1.5-2.61l-.23-2.38-.62-6.17c-3.62,3.32-8.19,5.42-13.07,6-3.52,.39-7.08-.05-10.4-1.28h0c-2.64-.97-5.12-2.35-7.35-4.08Z" fill="#f2b3c1" stroke="#002346" stroke-miterlimit="10" stroke-width=".98"></path>
  <rect x="202.46" y="148.77" width="57.18" height="76.64" rx="28.59" ry="28.59" transform="translate(-43.08 72.01) rotate(-16.23)" fill="#f2b3c1" stroke="#002346" stroke-miterlimit="10" stroke-width=".98"></rect>
  <path d="M160.2,275.38s15.91,0,20.14,19.33c0,0,.6,4.23,7.65-3l5.64-5.49,2.62,51.15s16.11,2.42,31.41,4.83c15.3,2.41,49,5.64,58.24,0,1.26-.22,2.37-.94,3.09-2h0c1.4-1.79,2.7-5.15,2.51-11.48v-14.57s2.63-18.4,0-29l4.63-28.93s-7.17-21.41-25.94-23.39l-18.69-2c2.39,2,5.6,5.56,5.41,10.12-.13,3.04-2.49,5.52-5.52,5.8-6.88,.64-21.66,0-33.67-14.3,0,0-7.58,11.28-26.31,9.47l-31.21,33.46Z" fill="#0074ad" stroke="#002346" stroke-miterlimit="10"></path>
  <path d="M264.13,637.45s-1.76-9.64,4.76-14.72h0l.28-.21,.26-.19c2.56-1.77,6.26-2.87,11.61-2.6h0c-.81-.3-26.93-10-26.32-27.83,.03-.61-.44-1.13-1.06-1.16-.08,0-.15,0-.22,.01l-10.83,1.62c-.61,.09-1.03,.65-.94,1.26,0,.04,.02,.09,.03,.13,.8,3,3,10.79,5,14.2h0c.09,.16,.18,.31,.27,.44-.38-.52-9-9.32-18.71-12.46-1.18-.38-1.84,1.59-2,2.82-.61,4.37,0,13.81-1.81,19.13-.01,.02,14.29,13.72,39.68,19.56Z" fill="#0074ad" stroke="#002346" stroke-miterlimit="10"></path>
  <path d="M225.84,628.22l24.29,12.52c1.79,.92,3.67,1.65,5.61,2.19,39.43,10.95,41.2-5.48,41.2-5.48,2.47-11.88-16-17.72-16-17.72-20.33-1-16.91,17.72-16.91,17.72-25.37-5.84-39.67-19.54-39.67-19.54-.93,1.56-1.47,3.33-1.57,5.14-.1,2.18,1.1,4.2,3.05,5.17Z" fill="#fff" stroke="#002346" stroke-miterlimit="10"></path>
  <path d="M265.76,637.45s14.5,6.29,27.5-2.71" fill="none" stroke="#002346" stroke-linecap="round" stroke-linejoin="round"></path>
  <path d="M247.76,221.24l.94,6.11h0c.05,.43,.18,.84,.39,1.22,.28,.52,.66,.98,1.11,1.37,0,0,28.48,2.14,21.23-15,0,0,10.27-7,5.64-18.92,0,0,13.52,1.27,12.6-8.63,0,0,1.7-8.89-9.78-10.91,0,0-19.85-10-20.5-17.48-.65-7.48-3.47-21.58-21-15.54-4.69,1.29-9.68,.76-14-1.47-7.12-3.77-26.25-10.82-35.71,11.33,0,0-5.84,21.75-18.93,23.77,0,0-17.72,2.73-9.67,16,0,0,6.47,3.9-2.1,7.06,.14-.02-14.3,4.95-3.63,10.59,0,0,8,2.38,4.32,8-3.68,5.62,1.28,7.62,10.46,8.35,0,0,1.25,8.06,14.16,8.55h1.27c.05,.42,.15,.83,.3,1.22,.55,1.58,2.13,4.19,6.54,5,5.09,.35,10.2-.19,15.1-1.6,4.34-1.35,8.59-3.72,11.21-7.87l-.59-12.97c-3.28-2.62-6.14-5.73-8.47-9.23l-4-16s5.65,1.42,6.84,9.6c0,0,2.4-1.09-2.84-10.55,0,0-1.21-10.07,7.05-8.66,0,0,8.2,1.63,8.73-7.54,0,0-.47-5.09,3.65-6.33,0,0,1.89-1.06,2.43-5.27,.11-.92,.16-1.84,.14-2.76-.05-1.44,.3-2.86,1-4.12,1.04-1.81,2.86-3.03,4.93-3.3,2.96-.42,5.92,.75,7.8,3.07,2.91,3.45,5.1,7.43,6.45,11.7,.8,2.54,3.43,4.03,6.05,3.53h0s3.94,13.53,3.94,13.53c0,0,7.94,21.15-13.06,34.15Z" fill="#002346" stroke="#002346" stroke-miterlimit="10"></path>
  <ellipse cx="204.71" cy="202.28" rx="6.27" ry="8.86" transform="translate(-68.83 112.83) rotate(-26.55)" fill="#f2b3c1" stroke="#002346" stroke-miterlimit="10" stroke-width=".98"></ellipse>
  <path d="M266.96,215.36h0c1.44,1.69,5.71,4.28,17.41,7.59,0,0-6.25,7.44-3.53,13.12,1.02,2.06,3.53,2.91,5.59,1.88,.4-.2,.76-.46,1.08-.77,.59-.72,1.65-.83,2.38-.25,0,0,1.2,7.64,8.05,8l-6.42,40.29s2.25,11.02,0,30.24c0,0,15.99,10.5,20.63-8.49,.46-1.9,.7-3.85,.8-5.8,.52-9.8,2.16-48.28-3.2-60.71,0,0-10.79-23.72-19.85-23.85l-23.36-3.35s-.81,.67,.42,2.1Z" fill="#f2b3c1" stroke="#002346" stroke-miterlimit="10" stroke-width=".98"></path>
  <path d="M180.34,294.71l-10.47,8.66s24.35,16.3,30.3,20.73c0,0,6.71,2.1,1.69,18.57,0,0-1.6,10.29-1.69,15.2,0,0-3.16,.67-6.36-5.07,0,0-2.2,7.76-2.2,9.37,0,0-13.81,.27-8.82-19.5l5.63-14.23s-67.49-8.76-51.78-29.1l23.56-24s15.54-.03,20.14,19.37Z" fill="#f2b3c1" stroke="#002346" stroke-miterlimit="10" stroke-width=".98"></path>
  <path d="M237.73,644.5s-1.76-9.65,4.76-14.72h0l.28-.22,.26-.18c2.56-1.77,6.26-2.87,11.61-2.61h0c-.81-.3-26.93-10-26.32-27.83,.03-.62-.45-1.14-1.07-1.17-.07,0-.14,0-.21,.01l-10.83,1.63c-.61,.09-1.03,.65-.94,1.26,0,.04,.02,.09,.03,.13,.8,3,3,10.79,5,14.2h0c.09,.16,.18,.3,.27,.44-4.13-5.26-9.68-9.23-16-11.43-1.05-.34-2.18,.24-2.52,1.29-.04,.12-.07,.24-.08,.36-.61,4.36-2.1,13.95-3.92,19.27,.01,.03,14.31,13.73,39.68,19.57Z" fill="#0074ad" stroke="#002346" stroke-miterlimit="10"></path>
  <path d="M199.46,635.27l24.33,12.51c1.79,.92,3.67,1.66,5.61,2.2,39.43,10.94,41.2-5.48,41.2-5.48,2.47-11.89-16-17.73-16-17.73-20.33-1-16.91,17.73-16.91,17.73-25.37-5.84-39.67-19.54-39.67-19.54-.93,1.56-1.47,3.33-1.57,5.14-.1,2.17,1.08,4.19,3.01,5.17Z" fill="#fff" stroke="#002346" stroke-miterlimit="10"></path>
  <line x1="193.63" y1="286.22" x2="211.58" y2="268.45" fill="none" stroke="#002346" stroke-linecap="round" stroke-linejoin="round"></line>
  <path d="M169.87,303.37s-4.73-4.17-11.67-.9" fill="none" stroke="#002346" stroke-linecap="round" stroke-linejoin="round"></path>
  <path d="M185.29,359.79s-1.22-7.09,1.88-13.07" fill="none" stroke="#002346" stroke-linecap="round" stroke-linejoin="round"></path>
  <path d="M193.81,352.8s-.04-5.56,2.96-10.56" fill="none" stroke="#002346" stroke-linecap="round" stroke-linejoin="round"></path>
  <line x1="248.8" y1="422.09" x2="248.8" y2="393.1" fill="none" stroke="#002346" stroke-linecap="round" stroke-linejoin="round"></line>
  <path d="M237.69,644.5s14.08,4.74,28.08-.26" fill="none" stroke="#002346" stroke-linecap="round" stroke-linejoin="round"></path>
  <line x1="220.3" y1="615" x2="233.63" y2="627.16" fill="none" stroke="#002346" stroke-linecap="round" stroke-linejoin="round"></line>
  <g>
    <rect x="656.87" y="97.44" width="53.05" height="62.87" fill="#e6e7e8" stroke="#002346" stroke-miterlimit="10"></rect>
    <path d="M685.01,105.92c.01,.89-.71,1.63-1.6,1.64s-1.63-.71-1.64-1.6,.71-1.63,1.6-1.64c0,0,0,0,0,0h0c.89-.01,1.62,.7,1.63,1.59,0,0,0,0,0,.01Z" fill="#002346"></path>
    <line x1="664.77" y1="113.12" x2="676.05" y2="113.12" fill="none" stroke="#002346" stroke-linecap="round" stroke-linejoin="round"></line>
    <line x1="688.77" y1="113.12" x2="700.05" y2="113.12" fill="none" stroke="#002346" stroke-linecap="round" stroke-linejoin="round"></line>
    <line x1="688.77" y1="118.7" x2="700.05" y2="118.7" fill="none" stroke="#002346" stroke-linecap="round" stroke-linejoin="round"></line>
    <line x1="664.77" y1="118.7" x2="676.05" y2="118.7" fill="none" stroke="#002346" stroke-linecap="round" stroke-linejoin="round"></line>
    <line x1="664.77" y1="124.27" x2="676.05" y2="124.27" fill="none" stroke="#002346" stroke-linecap="round" stroke-linejoin="round"></line>
    <line x1="688.77" y1="124.27" x2="700.05" y2="124.27" fill="none" stroke="#002346" stroke-linecap="round" stroke-linejoin="round"></line>
    <line x1="688.77" y1="129.84" x2="700.05" y2="129.84" fill="none" stroke="#002346" stroke-linecap="round" stroke-linejoin="round"></line>
    <line x1="664.77" y1="129.84" x2="676.05" y2="129.84" fill="none" stroke="#002346" stroke-linecap="round" stroke-linejoin="round"></line>
    <line x1="664.77" y1="135.41" x2="676.05" y2="135.41" fill="none" stroke="#002346" stroke-linecap="round" stroke-linejoin="round"></line>
    <line x1="688.77" y1="135.41" x2="700.05" y2="135.41" fill="none" stroke="#002346" stroke-linecap="round" stroke-linejoin="round"></line>
    <line x1="688.77" y1="140.98" x2="700.05" y2="140.98" fill="none" stroke="#002346" stroke-linecap="round" stroke-linejoin="round"></line>
    <line x1="664.77" y1="140.98" x2="676.05" y2="140.98" fill="none" stroke="#002346" stroke-linecap="round" stroke-linejoin="round"></line>
    <line x1="664.77" y1="146.55" x2="676.05" y2="146.55" fill="none" stroke="#002346" stroke-linecap="round" stroke-linejoin="round"></line>
    <line x1="688.77" y1="146.55" x2="700.05" y2="146.55" fill="none" stroke="#002346" stroke-linecap="round" stroke-linejoin="round"></line>
    <line x1="688.77" y1="152.12" x2="700.05" y2="152.12" fill="none" stroke="#002346" stroke-linecap="round" stroke-linejoin="round"></line>
    <line x1="664.77" y1="152.12" x2="676.05" y2="152.12" fill="none" stroke="#002346" stroke-linecap="round" stroke-linejoin="round"></line>
  </g>
  <g>
    <rect x="598.87" y="63.44" width="53.05" height="62.87" fill="#e6e7e8" stroke="#002346" stroke-miterlimit="10"></rect>
    <path d="M627.01,71.92c.01,.89-.71,1.63-1.6,1.64s-1.63-.71-1.64-1.6,.71-1.63,1.6-1.64c0,0,0,0,0,0h0c.89-.01,1.62,.7,1.63,1.59,0,0,0,0,0,.01Z" fill="#002346"></path>
    <line x1="606.77" y1="79.12" x2="618.05" y2="79.12" fill="none" stroke="#002346" stroke-linecap="round" stroke-linejoin="round"></line>
    <line x1="630.77" y1="79.12" x2="642.05" y2="79.12" fill="none" stroke="#002346" stroke-linecap="round" stroke-linejoin="round"></line>
    <line x1="630.77" y1="84.7" x2="642.05" y2="84.7" fill="none" stroke="#002346" stroke-linecap="round" stroke-linejoin="round"></line>
    <line x1="606.77" y1="84.7" x2="618.05" y2="84.7" fill="none" stroke="#002346" stroke-linecap="round" stroke-linejoin="round"></line>
    <line x1="606.77" y1="90.27" x2="618.05" y2="90.27" fill="none" stroke="#002346" stroke-linecap="round" stroke-linejoin="round"></line>
    <line x1="630.77" y1="90.27" x2="642.05" y2="90.27" fill="none" stroke="#002346" stroke-linecap="round" stroke-linejoin="round"></line>
    <line x1="630.77" y1="95.84" x2="642.05" y2="95.84" fill="none" stroke="#002346" stroke-linecap="round" stroke-linejoin="round"></line>
    <line x1="606.77" y1="95.84" x2="618.05" y2="95.84" fill="none" stroke="#002346" stroke-linecap="round" stroke-linejoin="round"></line>
    <line x1="606.77" y1="101.41" x2="618.05" y2="101.41" fill="none" stroke="#002346" stroke-linecap="round" stroke-linejoin="round"></line>
    <line x1="630.77" y1="101.41" x2="642.05" y2="101.41" fill="none" stroke="#002346" stroke-linecap="round" stroke-linejoin="round"></line>
    <line x1="630.77" y1="106.98" x2="642.05" y2="106.98" fill="none" stroke="#002346" stroke-linecap="round" stroke-linejoin="round"></line>
    <line x1="606.77" y1="106.98" x2="618.05" y2="106.98" fill="none" stroke="#002346" stroke-linecap="round" stroke-linejoin="round"></line>
    <line x1="606.77" y1="112.55" x2="618.05" y2="112.55" fill="none" stroke="#002346" stroke-linecap="round" stroke-linejoin="round"></line>
    <line x1="630.77" y1="112.55" x2="642.05" y2="112.55" fill="none" stroke="#002346" stroke-linecap="round" stroke-linejoin="round"></line>
    <line x1="630.77" y1="118.12" x2="642.05" y2="118.12" fill="none" stroke="#002346" stroke-linecap="round" stroke-linejoin="round"></line>
    <line x1="606.77" y1="118.12" x2="618.05" y2="118.12" fill="none" stroke="#002346" stroke-linecap="round" stroke-linejoin="round"></line>
  </g>
  <rect x="643.92" y="49.71" width="26.98" height="26.98" fill="#ffbb00" stroke="#002346" stroke-miterlimit="10"></rect>
  <path d="M659.03,52.5c0,.89-.73,1.62-1.62,1.62-.89,0-1.62-.73-1.62-1.62s.73-1.62,1.62-1.62h0c.89,0,1.62,.73,1.62,1.62Z" fill="#002346"></path>
  <ellipse cx="235.68" cy="167.04" rx="21.5" ry="15.5" fill="#002346" stroke="#002346" stroke-miterlimit="10"></ellipse>
</svg>
